<svg width="209" height="217" viewBox="0 0 209 217" fill="none" xmlns="http://www.w3.org/2000/svg">
<path d="M104.143 216.109C161.606 216.109 208.189 169.571 208.189 112.164C208.189 54.757 161.606 8.21899 104.143 8.21899C46.681 8.21899 0.0979919 54.757 0.0979919 112.164C0.0979919 169.571 46.681 216.109 104.143 216.109Z" fill="#86868A"/>
<path d="M174.78 95.363L143.239 142.186C140.573 146.144 136.513 148.941 131.876 150.016L131.227 150.167L183.855 2.16C186.577 6.065 187.731 10.858 187.084 15.579L176.926 89.734C176.651 91.752 175.916 93.677 174.78 95.363Z" fill="#4B4B4C"/>
<path d="M131.224 151.201C130.934 151.201 130.653 151.078 130.455 150.855C130.205 150.572 130.129 150.176 130.256 149.82L182.885 1.81299C183.014 1.44899 183.336 1.18898 183.717 1.13598C184.106 1.08498 184.478 1.25199 184.698 1.56799C187.578 5.69899 188.788 10.726 188.102 15.721L177.946 89.876C177.65 92.038 176.85 94.136 175.633 95.942L144.09 142.765C141.27 146.954 137.013 149.887 132.105 151.024L131.456 151.175C131.38 151.193 131.302 151.201 131.224 151.201ZM184.104 4.53201L132.844 148.687C136.733 147.496 140.089 145.016 142.386 141.607L173.928 94.784C174.969 93.239 175.653 91.444 175.907 89.595L186.064 15.44C186.581 11.657 185.888 7.85401 184.104 4.53201Z" fill="#212121"/>
<path d="M36.116 158.131H121.076C125.915 158.131 130.217 156.781 130.867 150.842C125.109 150.842 26.012 150.842 26.012 150.842C26.012 150.842 27.513 158.131 36.116 158.131Z" fill="#4B4B4C"/>
<path d="M121.076 159.164H36.115C26.783 159.164 25.019 151.132 25.002 151.05C24.939 150.746 25.016 150.429 25.212 150.188C25.406 149.947 25.701 149.807 26.01 149.807H130.866C131.158 149.807 131.437 149.932 131.633 150.151C131.828 150.37 131.921 150.661 131.889 150.954C130.992 159.164 123.529 159.164 121.076 159.164ZM27.444 151.875C28.269 153.756 30.52 157.097 36.115 157.097H121.076C126.222 157.097 128.857 155.52 129.659 151.875H27.444Z" fill="#212121"/>
<path d="M26.008 150.842H130.863L147.668 57.975H60.018L26.008 150.842Z" fill="#EAEAEA"/>
<path d="M130.866 151.876H26.01C25.673 151.876 25.358 151.71 25.165 151.433C24.973 151.156 24.928 150.802 25.044 150.485L59.056 57.618C59.205 57.211 59.591 56.941 60.021 56.941H147.669C147.975 56.941 148.264 57.077 148.46 57.312C148.656 57.548 148.738 57.858 148.682 58.159L131.88 151.026C131.789 151.518 131.363 151.876 130.866 151.876ZM27.485 149.808H130.006L146.436 59.009H60.739L27.485 149.808Z" fill="#212121"/>
<path d="M171.869 90.37L130.867 150.841L147.672 57.974L184.103 1.82199L171.869 90.37Z" fill="#212121"/>
<path d="M130.869 151.875C130.739 151.875 130.606 151.85 130.479 151.798C130.028 151.613 129.77 151.137 129.856 150.657L146.66 57.79C146.685 57.654 146.736 57.525 146.81 57.41L183.241 1.25798C183.503 0.851983 184.015 0.685991 184.464 0.853991C184.916 1.02399 185.19 1.48498 185.124 1.96398L172.891 90.511C172.869 90.669 172.811 90.819 172.722 90.951L131.721 151.422C131.524 151.713 131.202 151.875 130.869 151.875ZM148.649 58.364L132.75 146.232L170.884 89.988L182.45 6.264L148.649 58.364ZM171.87 90.37H171.881H171.87Z" fill="#212121"/>
<path d="M107.705 128.683L114.61 128.675C115.721 128.674 116.459 129.428 116.258 130.362L114.995 136.234C114.79 137.187 113.71 137.962 112.584 137.962H105.583C104.458 137.962 103.727 137.188 103.948 136.236L105.308 130.372C105.524 129.438 106.596 128.684 107.705 128.683ZM87.117 130.387L85.595 136.24C85.348 137.19 86.054 137.963 87.174 137.963H94.148C95.269 137.963 96.366 137.19 96.598 136.238L98.023 130.378C98.249 129.446 97.536 128.694 96.43 128.695L89.553 128.702C88.449 128.702 87.358 129.456 87.117 130.387ZM68.998 130.403L67.316 136.243C67.044 137.191 67.725 137.962 68.84 137.962H75.785C76.902 137.962 78.017 137.19 78.274 136.241L79.859 130.393C80.112 129.463 79.422 128.713 78.32 128.714L71.471 128.721C70.374 128.722 69.266 129.473 68.998 130.403ZM50.956 130.417L49.115 136.246C48.816 137.193 49.473 137.962 50.583 137.962H57.499C58.611 137.962 59.743 137.192 60.027 136.244L61.772 130.408C62.05 129.48 61.385 128.73 60.288 128.731L53.467 128.738C52.372 128.741 51.248 129.491 50.956 130.417ZM108.333 117.324L107.028 122.953C106.816 123.867 107.536 124.609 108.638 124.607L115.5 124.597C116.603 124.595 117.658 123.851 117.855 122.935L119.066 117.298C119.259 116.402 118.532 115.679 117.444 115.681L110.675 115.698C109.59 115.702 108.541 116.427 108.333 117.324ZM90.501 117.365L89.04 122.984C88.804 123.896 89.5 124.636 90.597 124.635L97.431 124.625C98.53 124.623 99.602 123.88 99.823 122.967L101.191 117.341C101.408 116.446 100.705 115.726 99.621 115.728L92.88 115.744C91.798 115.746 90.734 116.471 90.501 117.365ZM72.74 117.406L71.126 123.014C70.864 123.925 71.537 124.663 72.629 124.662L79.436 124.652C80.531 124.65 81.62 123.907 81.867 122.997L83.389 117.382C83.631 116.489 82.952 115.77 81.872 115.772L75.157 115.789C74.078 115.791 72.997 116.514 72.74 117.406ZM55.05 117.447L53.283 123.044C52.996 123.953 53.645 124.69 54.733 124.689L61.513 124.679C62.603 124.676 63.708 123.936 63.98 123.027L65.656 117.423C65.923 116.532 65.266 115.813 64.19 115.816L57.502 115.832C56.429 115.835 55.331 116.557 55.05 117.447ZM111.24 104.79L109.985 110.2C109.781 111.078 110.492 111.789 111.571 111.786L118.299 111.766C119.381 111.763 120.412 111.045 120.601 110.167L121.765 104.751C121.951 103.89 121.235 103.196 120.168 103.201L113.53 103.226C112.464 103.231 111.44 103.929 111.24 104.79ZM93.753 104.855L92.35 110.255C92.122 111.131 92.809 111.84 93.885 111.837L100.586 111.818C101.664 111.814 102.711 111.099 102.924 110.222L104.238 104.816C104.447 103.956 103.754 103.265 102.691 103.269L96.079 103.295C95.017 103.299 93.976 103.996 93.753 104.855ZM76.335 104.92L74.784 110.31C74.531 111.184 75.195 111.892 76.267 111.889L82.941 111.869C84.015 111.866 85.077 111.152 85.315 110.276L86.778 104.881C87.01 104.023 86.34 103.333 85.281 103.337L78.695 103.363C77.638 103.367 76.581 104.063 76.335 104.92ZM58.985 104.985L57.286 110.363C57.01 111.237 57.652 111.943 58.719 111.94L65.367 111.92C66.435 111.917 67.515 111.204 67.777 110.33L69.387 104.945C69.643 104.088 68.994 103.399 67.939 103.403L61.379 103.429C60.327 103.434 59.254 104.13 58.985 104.985ZM114.034 92.742L112.827 97.943C112.632 98.787 113.331 99.468 114.39 99.464L120.988 99.435C122.049 99.431 123.057 98.741 123.238 97.895L124.358 92.688C124.536 91.86 123.831 91.194 122.784 91.2L116.274 91.234C115.228 91.241 114.225 91.915 114.034 92.742ZM96.879 92.83L95.53 98.021C95.31 98.864 95.988 99.545 97.043 99.54L103.615 99.511C104.673 99.506 105.696 98.817 105.901 97.974L107.165 92.776C107.365 91.949 106.683 91.284 105.639 91.29L99.153 91.325C98.111 91.331 97.093 92.003 96.879 92.83ZM79.79 92.916L78.299 98.099C78.057 98.94 78.712 99.619 79.763 99.615L86.309 99.587C87.363 99.583 88.401 98.895 88.63 98.053L90.037 92.865C90.26 92.039 89.599 91.376 88.56 91.381L82.098 91.416C81.061 91.42 80.028 92.092 79.79 92.916ZM62.768 93.002L61.134 98.175C60.869 99.015 61.503 99.693 62.549 99.688L69.07 99.66C70.119 99.656 71.174 98.969 71.425 98.129L72.973 92.949C73.219 92.126 72.58 91.463 71.544 91.469L65.107 91.503C64.075 91.51 63.027 92.179 62.768 93.002ZM116.721 81.151L115.56 86.156C115.372 86.968 116.062 87.622 117.1 87.617L123.573 87.581C124.614 87.575 125.6 86.91 125.775 86.097L126.853 81.087C127.024 80.29 126.33 79.65 125.302 79.657L118.913 79.699C117.887 79.705 116.907 80.354 116.721 81.151ZM99.887 81.258L98.588 86.255C98.377 87.065 99.045 87.719 100.08 87.713L106.529 87.677C107.565 87.671 108.567 87.007 108.763 86.196L109.979 81.194C110.173 80.399 109.499 79.761 108.475 79.767L102.109 79.808C101.089 79.815 100.094 80.464 99.887 81.258ZM83.115 81.365L81.679 86.353C81.447 87.162 82.093 87.815 83.125 87.809L89.549 87.773C90.581 87.767 91.597 87.104 91.818 86.294L93.171 81.301C93.386 80.506 92.734 79.869 91.715 79.876L85.373 79.917C84.354 79.924 83.344 80.572 83.115 81.365ZM66.407 81.472L64.836 86.451C64.58 87.258 65.206 87.911 66.234 87.904L72.633 87.868C73.663 87.862 74.693 87.201 74.935 86.392L76.425 81.408C76.662 80.616 76.031 79.979 75.015 79.986L68.697 80.027C67.682 80.034 66.658 80.68 66.407 81.472ZM119.309 69.991L118.191 74.811C118.01 75.592 118.69 76.222 119.71 76.215L126.063 76.17C127.084 76.163 128.05 75.521 128.217 74.739L129.255 69.914C129.42 69.146 128.736 68.532 127.728 68.539L121.454 68.588C120.447 68.598 119.487 69.224 119.309 69.991ZM102.783 70.117L101.532 74.929C101.329 75.709 101.988 76.338 103.004 76.33L109.334 76.287C110.352 76.28 111.331 75.639 111.521 74.858L112.692 70.042C112.879 69.275 112.215 68.662 111.21 68.669L104.961 68.718C103.956 68.726 102.981 69.353 102.783 70.117ZM86.318 70.244L84.935 75.047C84.711 75.826 85.349 76.453 86.361 76.446L92.667 76.403C93.681 76.395 94.675 75.757 94.886 74.976L96.19 70.168C96.398 69.403 95.754 68.79 94.752 68.798L88.526 68.846C87.525 68.854 86.537 69.479 86.318 70.244ZM69.913 70.369L68.398 75.164C68.152 75.943 68.771 76.569 69.779 76.562L76.061 76.518C77.071 76.511 78.08 75.873 78.312 75.094L79.747 70.294C79.976 69.53 79.352 68.918 78.354 68.927L72.151 68.975C71.156 68.982 70.153 69.606 69.913 70.369Z" fill="#4B4B4C"/>
<path d="M102.961 30.607C102.696 30.773 102.356 30.81 102.043 30.673C101.848 30.589 82.313 22.328 61.052 30.732C60.542 30.934 59.961 30.678 59.752 30.161C59.544 29.644 59.785 29.056 60.296 28.859C82.338 20.144 102.6 28.741 102.802 28.828C103.31 29.049 103.552 29.641 103.343 30.151C103.262 30.347 103.127 30.503 102.961 30.607Z" fill="#303030"/>
<path d="M91.621 38.034C91.447 38.143 91.237 38.198 91.016 38.178C90.888 38.168 78.185 37.176 67.661 46.117C67.248 46.47 66.615 46.411 66.255 45.984C65.896 45.557 65.944 44.923 66.362 44.568C77.526 35.081 90.604 36.126 91.155 36.175C91.703 36.224 92.117 36.711 92.078 37.264C92.056 37.596 91.877 37.874 91.621 38.034Z" fill="#303030"/>
</svg>
